<?xml version="1.0" encoding="iso-8859-1"?>
<!-- Generator: Adobe Illustrator 17.0.0, SVG Export Plug-In . SVG Version: 6.00 Build 0)  -->
<!DOCTYPE svg PUBLIC "-//W3C//DTD SVG 1.1//EN" "http://www.w3.org/Graphics/SVG/1.1/DTD/svg11.dtd">
<svg version="1.1" id="Layer_1" xmlns="http://www.w3.org/2000/svg" xmlns:xlink="http://www.w3.org/1999/xlink" x="0px" y="0px"
	 width="182px" height="40px" viewBox="0 0 182 40" style="enable-background:new 0 0 182 40;" xml:space="preserve">
<g>
	<g>
		<rect x="1" y="8.66" style="fill:#DB2829;" width="6" height="6"/>
		<rect x="1" y="17.32" style="fill:#DB2829;" width="6" height="6"/>
		<rect x="1" y="26" style="fill:#DB2829;" width="6" height="6"/>
		<rect x="9.66" y="26" style="fill:#DB2829;" width="6" height="6"/>
		<rect x="18.32" y="26" style="fill:#DB2829;" width="6" height="6"/>
	</g>
	<g>
		<rect x="9.66" y="8.66" style="fill:#012650;" width="6" height="6"/>
		<rect x="9.66" style="fill:#012650;" width="6" height="6"/>
		<rect x="9.66" y="17.32" style="fill:#012650;" width="6" height="6"/>
		<rect x="18.32" style="fill:#012650;" width="6" height="6"/>
		<rect x="18.32" y="8.66" style="fill:#012650;" width="6" height="6"/>
		<rect x="18.32" y="17.32" style="fill:#012650;" width="6" height="6"/>
		<rect x="27" style="fill:#012650;" width="6" height="6"/>
		<rect x="27" y="8.66" style="fill:#012650;" width="6" height="6"/>
		<rect x="27" y="17.32" style="fill:#012650;" width="6" height="6"/>
	</g>
	<g>
		<path style="fill:#DB2829;" d="M42.942,32V6.835h4.248v21.132h11.483V32H42.942z"/>
		<path style="fill:#DB2829;" d="M77.861,29.426c-1.92,1.908-4.319,2.861-7.199,2.861s-5.28-0.953-7.2-2.861
			c-1.921-1.908-2.88-4.242-2.88-7.003c0-2.76,0.959-5.094,2.88-7.002c1.92-1.908,4.32-2.862,7.2-2.862s5.279,0.954,7.199,2.862
			s2.881,4.242,2.881,7.002C80.742,25.184,79.781,27.518,77.861,29.426z M66.324,26.941c1.14,1.164,2.585,1.746,4.338,1.746
			c1.751,0,3.197-0.582,4.338-1.746c1.14-1.164,1.71-2.67,1.71-4.519c0-1.848-0.57-3.354-1.71-4.518
			c-1.141-1.164-2.587-1.746-4.338-1.746c-1.753,0-3.198,0.582-4.338,1.746c-1.141,1.164-1.71,2.67-1.71,4.518
			C64.614,24.271,65.183,25.777,66.324,26.941z"/>
		<path style="fill:#DB2829;" d="M100.469,32h-3.672v-2.557c-1.584,1.896-3.708,2.844-6.372,2.844c-1.992,0-3.642-0.562-4.949-1.691
			c-1.309-1.129-1.963-2.635-1.963-4.518c0-1.885,0.696-3.295,2.089-4.231c1.392-0.936,3.275-1.403,5.651-1.403h5.22v-0.721
			c0-2.543-1.416-3.815-4.247-3.815c-1.776,0-3.625,0.647-5.545,1.943l-1.8-2.52c2.328-1.848,4.968-2.772,7.92-2.772
			c2.256,0,4.098,0.571,5.526,1.71c1.428,1.141,2.142,2.935,2.142,5.383V32z M96.438,24.871v-1.62h-4.536
			c-2.904,0-4.356,0.913-4.356,2.737c0,0.936,0.36,1.65,1.08,2.141c0.72,0.492,1.722,0.738,3.006,0.738s2.406-0.359,3.366-1.08
			C95.957,27.068,96.438,26.096,96.438,24.871z"/>
		<path style="fill:#DB2829;" d="M108.317,21.631V32h-4.032V12.847h4.032v3.492c0.647-1.176,1.542-2.1,2.682-2.771
			s2.37-1.009,3.689-1.009c2.16,0,3.906,0.661,5.238,1.98c1.332,1.32,2,3.229,2,5.724V32h-4.035V21.487
			c0-3.528-1.461-5.292-4.391-5.292c-1.392,0-2.604,0.462-3.636,1.386C108.832,18.505,108.317,19.855,108.317,21.631z"/>
		<path style="fill:#012650;" d="M134.02,10.723V32h-4.248V10.723h-7.633V6.835h19.514v3.888H134.02z"/>
		<path style="fill:#012650;" d="M157.6,32h-3.672v-2.557c-1.584,1.896-3.707,2.844-6.371,2.844c-1.992,0-3.643-0.562-4.951-1.691
			s-1.961-2.635-1.961-4.518c0-1.885,0.695-3.295,2.088-4.231c1.391-0.936,3.275-1.403,5.652-1.403h5.219v-0.721
			c0-2.543-1.416-3.815-4.248-3.815c-1.775,0-3.623,0.647-5.543,1.943l-1.801-2.52c2.328-1.848,4.969-2.772,7.92-2.772
			c2.256,0,4.098,0.571,5.525,1.71c1.428,1.141,2.143,2.935,2.143,5.383V32z M153.569,24.871v-1.62h-4.537
			c-2.904,0-4.355,0.913-4.355,2.737c0,0.936,0.359,1.65,1.08,2.141c0.721,0.492,1.723,0.738,3.006,0.738s2.406-0.359,3.367-1.08
			C153.088,27.068,153.569,26.096,153.569,24.871z"/>
		<path style="fill:#012650;" d="M171.676,12.559c2.568,0,4.764,0.889,6.588,2.664c1.824,1.776,2.736,4.141,2.736,7.093
			s-0.906,5.353-2.719,7.2s-3.924,2.771-6.336,2.771s-4.578-1.055-6.498-3.168V40h-4.031V12.847h4.031v3.349
			C167.032,13.771,169.108,12.559,171.676,12.559z M165.377,22.459c0,1.824,0.551,3.318,1.654,4.482s2.449,1.746,4.033,1.746
			s2.963-0.576,4.139-1.729s1.766-2.645,1.766-4.482c0-1.836-0.576-3.359-1.729-4.571s-2.533-1.818-4.141-1.818
			s-2.965,0.606-4.068,1.818S165.377,20.636,165.377,22.459z"/>
	</g>
</g>
</svg>
